<?xml version="1.0" standalone="no"?>
<!DOCTYPE svg PUBLIC "-//W3C//DTD SVG 20010904//EN"
 "http://www.w3.org/TR/2001/REC-SVG-20010904/DTD/svg10.dtd">
<svg version="1.0" xmlns="http://www.w3.org/2000/svg"
 width="268.000000pt" height="80.000000pt" viewBox="0 0 268.000000 80.000000"
 preserveAspectRatio="xMidYMid meet">
<metadata>
Created by potrace 1.15, written by Peter Selinger 2001-2017
</metadata>
<g transform="translate(0.000000,80.000000) scale(0.100000,-0.100000)"
fill="#000000" stroke="none">
<path d="M2245 791 c-77 -20 -152 -87 -175 -156 -20 -61 -9 -165 22 -213 36
-53 89 -93 146 -108 26 -7 38 -13 26 -13 -17 -1 -24 -12 -35 -53 -14 -51 -15
-53 -52 -56 -20 -2 -37 -1 -37 1 0 3 7 24 15 47 8 23 15 47 15 52 0 5 -87 8
-214 6 -211 -3 -215 -3 -240 -27 -16 -15 -26 -35 -26 -53 l0 -28 -97 0 c-79 1
-95 3 -82 13 26 20 46 60 53 106 4 24 11 52 17 62 11 21 29 26 29 8 0 -7 8
-18 18 -25 57 -43 136 30 86 80 -20 20 -112 21 -158 2 -44 -18 -80 -69 -95
-131 -25 -109 -46 -128 -114 -106 -32 11 -67 7 -67 -8 0 -3 -20 -5 -44 -3
l-44 4 14 41 c8 23 12 47 10 54 -9 22 -62 15 -94 -12 -17 -14 -32 -25 -35 -25
-3 0 5 32 19 72 13 39 24 75 24 80 0 4 -19 8 -43 8 l-44 0 -34 -110 -34 -110
-46 0 c-44 0 -46 1 -41 25 3 17 16 30 38 40 38 16 46 45 13 45 -21 0 -22 14
-3 64 5 12 0 16 -23 16 -21 0 -33 -8 -47 -31 -10 -17 -30 -36 -44 -42 -41 -18
-60 -57 -28 -57 12 0 13 -6 5 -30 -9 -25 -16 -30 -45 -30 l-33 0 14 41 c24 68
24 69 -60 69 -105 0 -155 -29 -155 -89 0 -17 -6 -21 -35 -21 -19 0 -35 2 -35
5 0 3 12 35 27 71 19 49 24 71 16 83 -19 31 -52 25 -98 -18 -25 -23 -47 -41
-49 -41 -3 0 1 19 9 41 20 56 19 76 -5 84 -27 8 -51 -6 -101 -62 -23 -27 -40
-41 -36 -32 43 121 39 129 -62 129 -73 0 -80 -2 -95 -25 -25 -38 -20 -45 35
-45 37 0 50 -3 46 -13 -13 -35 -67 -209 -67 -217 0 -12 50 -13 65 -2 6 4 32
33 59 65 27 32 51 56 53 54 2 -2 -4 -23 -12 -47 -20 -58 -19 -69 10 -76 21 -5
32 2 71 45 25 28 50 51 54 51 5 0 2 -17 -6 -37 -15 -34 -15 -38 2 -50 21 -15
102 -17 140 -3 15 6 31 7 38 2 6 -5 117 -10 248 -10 l236 0 40 33 c39 34 39
34 34 8 -3 -15 1 -29 9 -34 19 -12 106 -11 130 1 13 7 19 7 19 0 0 -17 401
-13 425 4 15 11 22 11 44 0 14 -8 45 -14 69 -14 35 0 49 6 73 29 17 17 29 40
29 55 0 20 5 26 23 26 20 0 23 -4 19 -33 -2 -22 2 -38 12 -46 12 -10 14 -24 9
-58 -7 -54 10 -73 63 -73 24 0 40 9 63 35 17 20 31 42 31 50 0 9 10 15 24 15
14 0 36 4 50 10 16 6 27 6 31 0 9 -15 106 -12 137 4 19 10 29 11 37 3 15 -15
180 -21 214 -8 15 6 27 17 27 26 0 12 -16 15 -90 15 -79 0 -90 2 -90 18 0 9 5
24 10 32 8 13 12 12 25 -7 19 -27 57 -30 79 -7 39 38 2 74 -75 74 -79 0 -152
-52 -135 -96 4 -10 -3 -14 -29 -14 l-34 0 15 43 c8 23 13 50 10 60 -3 13 2 17
23 17 15 0 51 15 81 33 203 121 131 435 -104 452 -28 2 -64 1 -81 -4z"/>
</g>
</svg>
